# xmcd
#
# Track frame offsets:
#	300
#	14927
#	32660
#	50327
#	67450
#	82657
#	96852
#	115047
#	126122
#	136435
#	151880
#	169265
#	186585
#	201505
#	219342
#	234237
#	273465
#
# Disc length: 4439 seconds
#
# Revision: 0
# Processed by: cddbd v1.5.1PL2 Copyright (c) Steve Scherf et al.
# Submitted via: audiograbber 1.83.01
#
DISCID=fb115311
DTITLE=Various Artist - The Winners 2005 
DYEAR=2005
DGENRE=Country
TTITLE0=Slim Dusty - Answer To Billy
TTITLE1=Kasey Chambers - Like A River
TTITLE2=Adam Brand - Get Loud
TTITLE3=Melinda Schneider - Real People
TTITLE4=Greame Conners - I Dream Of Highways
TTITLE5=Troy Casser-Daley - Factory Man
TTITLE6=Bella - About a Girl
TTITLE7=Tommy Emmanuel - Tall Fiddler
TTITLE8=Tracy Coster - Back To the Saltbush Plains
TTITLE9=The Flood  - Australian For Broken Heart
TTITLE10=Carla Herrod - Out All Night
TTITLE11=Adam Harvey - Thats What you Call A Friend
TTITLE12=Davidson Brothers - Hunter Valley Breakdown
TTITLE13=Keith Jamieson - Picture Of Australia
TTITLE14=Felicity Urquhart - Turn Out The Light
TTITLE15=Fisk and Cristian - The Big Picture
TTITLE16=Various Artist - Data Track
EXTD=
EXTT0=
EXTT1=
EXTT2=
EXTT3=
EXTT4=
EXTT5=
EXTT6=
EXTT7=
EXTT8=
EXTT9=
EXTT10=
EXTT11=
EXTT12=
EXTT13=
EXTT14=
EXTT15=
EXTT16=
PLAYORDER=
